<svg xmlns="http://www.w3.org/2000/svg" xmlns:xlink="http://www.w3.org/1999/xlink" width="500" zoomAndPan="magnify" viewBox="0 0 375 374.999991" height="500" preserveAspectRatio="xMidYMid meet" version="1.0"><defs><clipPath id="38690911e2"><path d="M 94 78.949219 L 265 78.949219 L 265 293 L 94 293 Z M 94 78.949219 " clip-rule="nonzero"/></clipPath></defs><rect x="-37.5" width="450" fill="#ffffff" y="-37.499999" height="449.999989" fill-opacity="1"/><rect x="-37.5" width="450" fill="#000000" y="-37.499999" height="449.999989" fill-opacity="1"/><g clip-path="url(#38690911e2)"><path fill="#ffffff" d="M 263.757812 78.949219 L 136.746094 108.484375 L 136.746094 249.675781 C 134.761719 248.925781 132.722656 248.382812 130.625 248.042969 C 128.53125 247.707031 126.425781 247.582031 124.308594 247.671875 C 122.1875 247.761719 120.097656 248.058594 118.039062 248.570312 C 115.980469 249.082031 113.996094 249.796875 112.082031 250.707031 C 111.3125 250.949219 110.558594 251.226562 109.816406 251.539062 C 109.078125 251.851562 108.351562 252.199219 107.644531 252.582031 C 106.9375 252.960938 106.25 253.375 105.578125 253.824219 C 104.910156 254.269531 104.265625 254.746094 103.640625 255.257812 C 103.019531 255.765625 102.421875 256.300781 101.847656 256.867188 C 101.277344 257.429688 100.730469 258.023438 100.214844 258.636719 C 99.699219 259.253906 99.214844 259.894531 98.757812 260.558594 C 98.304688 261.21875 97.878906 261.902344 97.488281 262.605469 C 97.097656 263.308594 96.742188 264.03125 96.421875 264.765625 C 96.097656 265.503906 95.8125 266.253906 95.5625 267.015625 C 95.308594 267.78125 95.097656 268.554688 94.917969 269.339844 C 94.742188 270.125 94.601562 270.914062 94.5 271.714844 C 94.398438 272.511719 94.332031 273.3125 94.304688 274.117188 C 94.28125 274.917969 94.292969 275.722656 94.34375 276.523438 C 94.390625 277.328125 94.480469 278.125 94.605469 278.921875 C 94.730469 279.714844 94.894531 280.5 95.097656 281.28125 C 95.539062 281.953125 96.011719 282.605469 96.515625 283.234375 C 97.019531 283.867188 97.550781 284.46875 98.113281 285.046875 C 98.675781 285.625 99.265625 286.175781 99.878906 286.699219 C 100.492188 287.21875 101.132812 287.710938 101.792969 288.171875 C 102.453125 288.632812 103.136719 289.058594 103.839844 289.457031 C 104.542969 289.851562 105.261719 290.210938 106 290.539062 C 106.734375 290.867188 107.488281 291.15625 108.253906 291.410156 C 109.015625 291.664062 109.792969 291.882812 110.578125 292.0625 C 111.363281 292.242188 112.15625 292.386719 112.957031 292.488281 C 113.753906 292.59375 114.558594 292.660156 115.363281 292.6875 C 116.171875 292.714844 116.976562 292.703125 117.78125 292.65625 C 118.585938 292.605469 119.386719 292.515625 120.179688 292.390625 C 120.976562 292.265625 121.765625 292.101562 122.546875 291.898438 C 123.328125 291.695312 124.097656 291.457031 124.855469 291.183594 C 125.613281 290.90625 126.355469 290.597656 127.082031 290.25 C 127.8125 289.902344 128.519531 289.523438 129.210938 289.109375 C 131.460938 288.246094 133.570312 287.121094 135.546875 285.742188 C 137.519531 284.363281 139.296875 282.765625 140.878906 280.949219 C 142.464844 279.136719 143.804688 277.15625 144.902344 275.015625 C 146.003906 272.871094 146.828125 270.628906 147.378906 268.285156 C 147.527344 266.5625 147.527344 264.835938 147.378906 263.113281 L 147.378906 138.023438 L 252.828125 112.769531 L 252.828125 222.796875 C 250.84375 222.046875 248.804688 221.503906 246.710938 221.164062 C 244.617188 220.828125 242.507812 220.703125 240.390625 220.792969 C 238.269531 220.882812 236.179688 221.179688 234.121094 221.691406 C 232.0625 222.203125 230.078125 222.917969 228.164062 223.828125 C 227.410156 224.085938 226.671875 224.375 225.945312 224.699219 C 225.21875 225.027344 224.511719 225.386719 223.820312 225.777344 C 223.128906 226.171875 222.457031 226.59375 221.804688 227.050781 C 221.152344 227.503906 220.523438 227.992188 219.917969 228.507812 C 219.3125 229.023438 218.730469 229.5625 218.175781 230.132812 C 217.621094 230.703125 217.097656 231.300781 216.597656 231.917969 C 216.101562 232.539062 215.632812 233.179688 215.195312 233.84375 C 214.757812 234.507812 214.351562 235.191406 213.976562 235.894531 C 213.605469 236.597656 213.265625 237.3125 212.960938 238.046875 C 212.65625 238.78125 212.382812 239.53125 212.148438 240.289062 C 211.914062 241.050781 211.71875 241.820312 211.554688 242.597656 C 211.394531 243.375 211.269531 244.160156 211.179688 244.949219 C 211.089844 245.742188 211.042969 246.535156 211.027344 247.328125 C 211.015625 248.125 211.039062 248.917969 211.101562 249.710938 C 211.164062 250.503906 211.261719 251.292969 211.398438 252.074219 C 211.535156 252.859375 211.707031 253.632812 211.917969 254.402344 C 212.363281 255.070312 212.835938 255.71875 213.34375 256.347656 C 213.851562 256.972656 214.386719 257.574219 214.949219 258.148438 C 215.511719 258.722656 216.101562 259.269531 216.71875 259.789062 C 217.332031 260.308594 217.972656 260.796875 218.632812 261.253906 C 219.296875 261.714844 219.976562 262.140625 220.679688 262.53125 C 221.382812 262.925781 222.101562 263.285156 222.839844 263.609375 C 223.574219 263.933594 224.324219 264.222656 225.089844 264.476562 C 225.851562 264.730469 226.628906 264.949219 227.414062 265.128906 C 228.195312 265.308594 228.988281 265.449219 229.785156 265.554688 C 230.585938 265.660156 231.386719 265.726562 232.191406 265.753906 C 232.996094 265.785156 233.800781 265.773438 234.601562 265.726562 C 235.40625 265.679688 236.207031 265.59375 237 265.46875 C 237.796875 265.34375 238.585938 265.183594 239.363281 264.984375 C 240.144531 264.785156 240.914062 264.550781 241.671875 264.277344 C 242.429688 264.007812 243.171875 263.699219 243.902344 263.359375 C 244.628906 263.015625 245.339844 262.636719 246.035156 262.226562 C 247.320312 261.75 248.566406 261.175781 249.769531 260.515625 C 250.972656 259.851562 252.121094 259.105469 253.214844 258.277344 C 254.3125 257.445312 255.339844 256.539062 256.300781 255.558594 C 257.265625 254.578125 258.148438 253.535156 258.960938 252.425781 C 259.769531 251.3125 260.492188 250.152344 261.132812 248.9375 C 261.773438 247.71875 262.320312 246.464844 262.777344 245.167969 C 263.234375 243.871094 263.59375 242.550781 263.855469 241.203125 C 264.117188 239.855469 264.28125 238.492188 264.347656 237.121094 L 264.347656 110.699219 Z M 263.757812 78.949219 " fill-opacity="1" fill-rule="nonzero"/></g></svg>